# xmcd CD database file
#
# Track frame offsets:
#	150
#	13013
#	25493
#	37169
#	51084
#	65555
#	80353
#	91954
#	102560
#	116327
#	127276
#	137750
#	151754
#	166740
#	179741
#	194220
#	206516
#	216178
#	229272
#	243215
#
# Disc length: 3402 seconds
#
# Revision: 1
# Processed by: cddbd v1.5.2PL0 Copyright (c) Steve Scherf et al.
# Submitted via: CDex 1.51
#
DISCID=250d4814
DTITLE=charley pride - - The masters
DYEAR=1997
DGENRE=Country
TTITLE0=charley pride - Crystal chandeliers
TTITLE1=charley pride - Distant drums
TTITLE2=charley pride - I can't help it if i'm still in love with you
TTITLE3=charley pride - Green green grass of home
TTITLE4=charley pride - Kaw liga
TTITLE5=charley pride - Please help me i'm falling
TTITLE6=charley pride - Act naturally
TTITLE7=charley pride - Life turned her that way
TTITLE8=charley pride - You win again
TTITLE9=charley pride - I don't know why i love you but i do
TTITLE10=charley pride - More and more
TTITLE11=charley pride - In the jailhouse now
TTITLE12=charley pride - Miller's cave
TTITLE13=charley pride - Burning bridges
TTITLE14=charley pride - I'm a lonesome fugitive
TTITLE15=charley pride - Tennessee saturday night
TTITLE16=charley pride - Why baby why
TTITLE17=charley pride - Apartment No 9
TTITLE18=charley pride - Detroit city
TTITLE19=charley pride - I'm so lonesome i could cry
EXTD=YEAR: 1997
EXTT0=
EXTT1=
EXTT2=
EXTT3=
EXTT4=
EXTT5=
EXTT6=
EXTT7=
EXTT8=
EXTT9=
EXTT10=
EXTT11=
EXTT12=
EXTT13=
EXTT14=
EXTT15=
EXTT16=
EXTT17=
EXTT18=
EXTT19=
PLAYORDER=
